<?xml version="1.0" standalone="no"?>
<!DOCTYPE svg PUBLIC "-//W3C//DTD SVG 20010904//EN"
 "http://www.w3.org/TR/2001/REC-SVG-20010904/DTD/svg10.dtd">
<svg version="1.0" xmlns="http://www.w3.org/2000/svg"
 width="512.000000pt" height="512.000000pt" viewBox="0 0 512.000000 512.000000"
 preserveAspectRatio="xMidYMid meet">
<metadata>
Created by potrace 1.14, written by Peter Selinger 2001-2017
</metadata>
<g transform="translate(0.000000,512.000000) scale(0.100000,-0.100000)"
fill="#000000" stroke="none">
<path d="M2890 4955 c-19 -7 -48 -20 -65 -29 -16 -9 -49 -16 -72 -16 -39 0
-43 -2 -43 -25 0 -18 14 -35 49 -62 28 -21 51 -45 51 -53 1 -8 6 0 11 18 13
42 45 56 102 41 23 -6 55 -11 72 -12 23 -2 31 -8 35 -27 6 -33 28 -62 61 -84
26 -17 27 -16 43 18 20 43 21 118 0 157 -8 17 -36 43 -62 60 -52 33 -119 38
-182 14z"/>
<path d="M3703 4845 c-3 -9 -3 -18 -1 -21 3 -3 8 4 11 16 6 23 -1 27 -10 5z"/>
<path d="M854 4815 c-9 -14 -15 -27 -13 -30 3 -2 12 10 21 26 21 36 15 39 -8
4z"/>
<path d="M1924 4714 c0 -102 11 -125 21 -41 7 58 2 114 -11 127 -5 5 -9 -32
-10 -86z"/>
<path d="M1590 4768 c0 -9 -6 -19 -12 -21 -7 -3 -3 -6 10 -6 24 -1 27 6 12 29
-8 13 -10 13 -10 -2z"/>
<path d="M2180 4751 c-23 -7 -22 -8 11 -12 27 -4 35 -1 32 8 -6 14 -7 14 -43
4z"/>
<path d="M2270 4741 c0 -6 -8 -8 -17 -4 -10 3 -15 3 -11 -1 9 -11 118 -35 112
-25 -3 5 2 9 10 9 9 0 15 -5 14 -11 -2 -7 10 -15 25 -20 16 -4 34 -12 41 -18
9 -8 13 -7 13 4 0 8 -2 13 -5 11 -2 -3 -13 3 -24 13 -27 25 -158 60 -158 42z"/>
<path d="M1520 4644 c0 -8 5 -12 10 -9 6 4 8 11 5 16 -9 14 -15 11 -15 -7z"/>
<path d="M2486 4652 c-3 -6 1 -13 10 -16 23 -9 28 -2 10 13 -8 7 -17 8 -20 3z"/>
<path d="M1298 4643 c7 -3 16 -2 19 1 4 3 -2 6 -13 5 -11 0 -14 -3 -6 -6z"/>
<path d="M1521 4604 c0 -11 3 -14 6 -6 3 7 2 16 -1 19 -3 4 -6 -2 -5 -13z"/>
<path d="M2530 4616 c0 -2 8 -10 18 -17 15 -13 16 -12 3 4 -13 16 -21 21 -21
13z"/>
<path d="M2986 4600 c-27 -17 -27 -18 -7 -25 11 -3 25 -3 31 0 5 3 10 2 10 -4
0 -13 -14 -21 -47 -27 -38 -7 -100 -54 -114 -87 -6 -15 -18 -31 -27 -36 -31
-17 53 -33 187 -36 98 -2 135 -6 141 -16 5 -7 7 -16 4 -20 -2 -4 1 -11 8 -15
19 -12 78 -13 71 -2 -3 6 -19 8 -35 6 -28 -4 -29 -3 -22 26 3 17 9 34 13 38 8
9 88 14 96 6 4 -3 -1 -22 -9 -42 -8 -20 -13 -36 -10 -36 9 0 30 24 36 42 5 13
15 15 47 11 68 -9 73 -3 46 64 -34 87 -68 119 -135 127 -40 5 -56 4 -59 -5 -2
-7 -14 -23 -27 -36 -30 -30 -101 -32 -135 -3 -13 10 -19 19 -13 20 8 0 8 10 0
35 -12 40 -11 40 -50 15z"/>
<path d="M2120 4544 c0 -14 4 -23 10 -19 6 3 10 15 10 26 0 10 -4 19 -10 19
-5 0 -10 -12 -10 -26z"/>
<path d="M2197 4409 c7 -7 15 -10 18 -7 3 3 -2 9 -12 12 -14 6 -15 5 -6 -5z"/>
<path d="M2723 4375 c0 -8 4 -15 9 -15 4 0 8 7 8 15 0 8 -4 15 -8 15 -5 0 -9
-7 -9 -15z"/>
<path d="M3437 4377 c-3 -8 1 -14 9 -14 16 0 19 13 5 21 -5 3 -11 0 -14 -7z"/>
<path d="M1667 4369 c7 -7 15 -10 18 -7 3 3 -2 9 -12 12 -14 6 -15 5 -6 -5z"/>
<path d="M1616 4349 c-21 -20 -18 -33 5 -24 8 3 15 14 16 25 2 24 3 24 -21 -1z"/>
<path d="M2835 4359 c-4 -6 -5 -12 -2 -15 2 -3 7 2 10 11 7 17 1 20 -8 4z"/>
<path d="M2465 4340 l-60 -7 83 -1 c53 -1 81 2 77 8 -3 6 -14 9 -23 8 -9 -1
-44 -4 -77 -8z"/>
<path d="M2600 4340 c-11 -7 -3 -10 30 -9 34 0 40 2 25 9 -27 12 -37 12 -55 0z"/>
<path d="M2716 4342 c-4 -6 -2 -20 3 -29 6 -10 11 -13 11 -8 0 6 17 9 41 7 22
-3 46 1 52 7 8 8 -3 11 -40 11 -31 0 -53 5 -55 12 -3 9 -6 9 -12 0z"/>
<path d="M2367 4310 c-3 -11 -3 -20 -1 -20 2 0 8 9 14 20 6 11 7 20 2 20 -6 0
-12 -9 -15 -20z"/>
<path d="M3480 4306 c0 -2 7 -7 16 -10 8 -3 12 -2 9 4 -6 10 -25 14 -25 6z"/>
<path d="M1581 4079 c-1 -117 1 -210 4 -208 7 8 10 407 3 414 -3 3 -6 -90 -7
-206z"/>
<path d="M2389 4276 c13 -12 287 -19 308 -7 13 7 -29 11 -149 13 -92 2 -163
-1 -159 -6z"/>
<path d="M1733 4225 c4 -5 -3 -15 -15 -23 -16 -9 -17 -11 -3 -5 11 4 378 10
815 13 l795 5 -782 3 c-430 1 -790 5 -800 9 -10 3 -14 2 -10 -2z"/>
<path d="M1340 4199 c0 -5 5 -7 10 -4 6 3 10 8 10 11 0 2 -4 4 -10 4 -5 0 -10
-5 -10 -11z"/>
<path d="M3523 4155 c0 -33 2 -45 4 -27 2 18 2 45 0 60 -2 15 -4 0 -4 -33z"/>
<path d="M3391 4183 c7 -12 15 -20 18 -17 3 2 -3 12 -13 22 -17 16 -18 16 -5
-5z"/>
<path d="M1685 3645 c0 -275 1 -386 2 -247 2 139 2 364 0 500 -1 136 -2 22 -2
-253z"/>
<path d="M3405 2500 c0 -901 3 -1636 8 -1633 9 6 9 3244 -1 3260 -4 6 -7 -726
-7 -1627z"/>
<path d="M1122 3980 c0 -14 2 -19 5 -12 2 6 2 18 0 25 -3 6 -5 1 -5 -13z"/>
<path d="M723 3930 c2 -8 12 -16 23 -17 13 -2 15 -1 4 4 -8 3 -19 11 -23 17
-6 7 -7 6 -4 -4z"/>
<path d="M831 3834 c0 -11 3 -14 6 -6 3 7 2 16 -1 19 -3 4 -6 -2 -5 -13z"/>
<path d="M516 3825 c-9 -26 -7 -32 5 -12 6 10 9 21 6 23 -2 3 -7 -2 -11 -11z"/>
<path d="M1198 3793 c7 -3 16 -2 19 1 4 3 -2 6 -13 5 -11 0 -14 -3 -6 -6z"/>
<path d="M1580 3675 c0 -71 2 -126 5 -124 7 8 8 239 1 246 -3 4 -6 -51 -6
-122z"/>
<path d="M4218 3703 c7 -3 16 -2 19 1 4 3 -2 6 -13 5 -11 0 -14 -3 -6 -6z"/>
<path d="M516 3687 c3 -10 9 -15 12 -12 3 3 0 11 -7 18 -10 9 -11 8 -5 -6z"/>
<path d="M4080 3630 c0 -6 7 -10 15 -10 8 0 15 2 15 4 0 2 -7 6 -15 10 -8 3
-15 1 -15 -4z"/>
<path d="M600 3593 c8 -3 19 -11 23 -17 6 -7 7 -6 4 4 -2 8 -12 16 -23 17 -13
2 -15 1 -4 -4z"/>
<path d="M730 3590 c-8 -5 -10 -10 -5 -10 6 0 17 5 25 10 8 5 11 10 5 10 -5 0
-17 -5 -25 -10z"/>
<path d="M3513 3430 c0 -41 2 -58 4 -37 2 20 2 54 0 75 -2 20 -4 3 -4 -38z"/>
<path d="M1580 3401 c0 -5 5 -13 10 -16 6 -3 10 -2 10 4 0 5 -4 13 -10 16 -5
3 -10 2 -10 -4z"/>
<path d="M1227 3330 c-21 -4 -46 -15 -55 -24 -16 -16 -16 -18 1 -27 9 -6 17
-21 17 -34 0 -23 4 -25 44 -25 70 0 76 5 76 66 0 60 -1 60 -83 44z"/>
<path d="M1570 3329 c0 -5 5 -7 10 -4 6 3 10 8 10 11 0 2 -4 4 -10 4 -5 0 -10
-5 -10 -11z"/>
<path d="M1571 3254 c0 -11 3 -14 6 -6 3 7 2 16 -1 19 -3 4 -6 -2 -5 -13z"/>
<path d="M1578 3143 c7 -3 16 -2 19 1 4 3 -2 6 -13 5 -11 0 -14 -3 -6 -6z"/>
<path d="M3523 3085 c0 -22 2 -30 4 -17 2 12 2 30 0 40 -3 9 -5 -1 -4 -23z"/>
<path d="M3981 3100 c-13 -6 -41 -26 -61 -44 -21 -19 -47 -37 -58 -40 -18 -6
-42 -51 -42 -78 0 -4 14 -23 31 -40 l31 -33 -8 29 c-6 26 -5 28 12 21 10 -5
55 -9 99 -11 l80 -2 1 -37 c1 -29 9 -45 38 -74 20 -20 52 -59 70 -88 31 -48
33 -53 17 -67 -23 -21 -68 -37 -86 -30 -8 3 -17 22 -20 42 -17 105 -14 101
-66 76 l-34 -15 33 5 c28 5 34 2 42 -20 8 -21 6 -31 -14 -57 -49 -64 -76 -131
-75 -186 2 -49 4 -54 39 -77 40 -27 246 -114 269 -114 9 0 12 9 8 33 -4 17
-11 79 -17 137 -6 58 -13 115 -15 128 -5 20 -2 19 41 -13 25 -19 51 -35 57
-35 7 0 21 -3 33 -6 15 -4 30 4 52 26 57 57 40 146 -39 210 -17 14 -40 49 -52
78 -17 41 -34 60 -77 90 -41 27 -63 53 -86 96 -17 32 -45 67 -61 77 -36 23
-109 33 -142 19z"/>
<path d="M1572 3075 c0 -16 2 -22 5 -12 2 9 2 23 0 30 -3 6 -5 -1 -5 -18z"/>
<path d="M3524 2895 c0 -82 2 -115 3 -72 2 43 2 110 0 150 -1 40 -3 5 -3 -78z"/>
<path d="M1100 2990 c-9 -6 -10 -10 -3 -10 6 0 15 5 18 10 8 12 4 12 -15 0z"/>
<path d="M1572 2918 c-2 -72 1 -88 13 -88 8 0 15 5 15 10 0 6 -4 10 -9 10 -6
0 -9 9 -8 20 1 11 5 20 10 20 5 0 5 6 -1 13 -6 7 -12 33 -15 57 -2 26 -4 7 -5
-42z"/>
<path d="M1580 2809 c0 -5 5 -7 10 -4 6 3 10 8 10 11 0 2 -4 4 -10 4 -5 0 -10
-5 -10 -11z"/>
<path d="M1665 2790 c-10 -11 -13 -20 -8 -20 13 0 38 29 31 35 -3 3 -13 -4
-23 -15z"/>
<path d="M1168 2793 c7 -3 16 -2 19 1 4 3 -2 6 -13 5 -11 0 -14 -3 -6 -6z"/>
<path d="M1576 2738 l-31 -28 48 26 c52 29 54 31 30 31 -9 0 -30 -13 -47 -29z"/>
<path d="M1621 2629 c-35 -19 -49 -31 -39 -34 8 -3 25 -1 39 4 14 6 18 10 9
11 -8 1 -2 6 15 11 20 6 32 5 37 -4 5 -7 7 -1 6 16 -3 32 2 32 -67 -4z"/>
<path d="M3523 2600 c0 -30 2 -43 4 -27 2 15 2 39 0 55 -2 15 -4 2 -4 -28z"/>
<path d="M3475 2491 c-3 -5 -1 -12 5 -16 6 -4 7 -12 4 -18 -4 -7 -4 -9 1 -5 4
4 14 3 20 -2 16 -13 40 14 31 35 -6 16 -51 21 -61 6z"/>
<path d="M1570 2250 c0 -128 2 -231 5 -229 2 3 5 21 6 40 2 18 7 40 12 47 6 8
6 12 -1 12 -8 0 -11 56 -11 176 -1 97 -3 179 -6 182 -3 3 -5 -100 -5 -228z"/>
<path d="M3560 2465 c0 -2 9 -19 20 -37 l19 -32 11 28 c15 41 13 46 -20 46
-16 0 -30 -2 -30 -5z"/>
<path d="M4392 2445 c0 -16 2 -22 5 -12 2 9 2 23 0 30 -3 6 -5 -1 -5 -18z"/>
<path d="M1683 2295 c0 -33 2 -45 4 -27 2 18 2 45 0 60 -2 15 -4 0 -4 -33z"/>
<path d="M3916 2340 c-28 -10 -3 -22 29 -14 14 3 23 9 20 12 -9 9 -28 10 -49
2z"/>
<path d="M3955 2310 c3 -5 14 -10 24 -10 24 0 30 -36 25 -165 -2 -55 -1 -92 2
-82 3 9 12 17 21 17 12 0 13 3 4 14 -10 12 10 14 135 15 81 1 151 4 155 7 4 2
9 -1 12 -8 2 -7 3 -5 1 6 -1 10 1 28 6 40 7 20 5 22 -21 18 -22 -3 -65 14
-167 64 -75 37 -139 71 -142 74 -9 12 -62 22 -55 10z"/>
<path d="M3517 2169 c-5 -20 0 -24 19 -11 9 5 8 10 -1 19 -10 9 -14 8 -18 -8z"/>
<path d="M842 1777 c9 -318 17 -805 18 -1084 0 -198 2 -234 16 -248 13 -13 33
-15 122 -10 58 3 107 7 109 9 2 1 -21 19 -52 39 -31 21 -57 47 -60 60 -7 28
22 357 34 389 5 13 14 79 20 148 15 158 32 301 38 317 12 30 30 9 42 -49 31
-153 64 -304 96 -443 19 -82 41 -181 49 -220 8 -38 19 -88 25 -110 6 -22 11
-61 11 -87 0 -45 1 -47 33 -53 58 -10 250 -1 254 12 3 7 -8 15 -24 19 -35 9
-90 34 -124 57 -29 19 -27 6 -59 637 -5 107 -15 294 -21 415 -6 121 -12 236
-15 255 -2 19 -7 65 -10 103 l-7 67 -176 1 c-97 1 -210 3 -251 5 l-75 3 7
-232z"/>
<path d="M1570 1571 c0 -393 2 -441 15 -427 16 15 21 31 8 23 -5 -3 -9 8 -10
24 -1 17 3 29 10 29 7 0 8 3 2 8 -15 11 -17 32 -4 48 9 11 8 18 -1 29 -9 11
-9 15 -1 15 9 0 9 5 0 21 -8 15 -8 19 0 15 6 -4 11 -2 11 3 0 6 -4 11 -10 11
-5 0 -10 12 -10 26 0 17 4 23 13 18 10 -6 10 -4 0 7 -15 15 -17 49 -3 49 6 0
6 9 0 25 -13 34 -10 178 4 187 8 6 8 8 0 8 -9 0 -12 46 -12 156 -1 86 -3 159
-6 162 -3 3 -6 -194 -6 -437z"/>
<path d="M4004 1390 c0 -74 1 -105 3 -67 2 37 2 97 0 135 -2 37 -3 6 -3 -68z"/>
<path d="M3995 1165 c-3 -25 -6 -74 -5 -108 1 -34 1 -187 1 -339 l-1 -278 -37
-18 c-21 -11 -50 -22 -65 -26 -49 -11 -30 -23 47 -31 100 -9 151 0 159 28 9
34 7 94 -3 79 -5 -8 -23 -12 -47 -10 l-39 3 3 373 c2 204 1 372 -1 372 -3 0
-8 -20 -12 -45z"/>
<path d="M2800 1175 c0 -15 7 -39 16 -54 18 -30 81 -77 91 -68 12 12 -28 94
-55 113 -49 37 -52 37 -52 9z"/>
<path d="M1573 1065 c0 -33 2 -50 4 -37 2 12 10 22 16 22 9 0 9 2 0 8 -6 4
-13 21 -16 37 -2 17 -4 3 -4 -30z"/>
<path d="M3515 873 c0 -119 -3 -157 -12 -156 -7 2 -10 -4 -7 -12 4 -8 10 -15
16 -15 5 0 7 4 3 9 -3 5 -1 12 5 16 12 7 14 315 3 315 -5 0 -8 -71 -8 -157z"/>
<path d="M1572 863 c-2 -98 2 -144 10 -149 7 -4 8 -3 4 4 -4 7 -1 12 6 12 9 0
9 3 -2 10 -13 9 -13 10 0 10 9 0 11 3 5 8 -6 4 -12 42 -14 86 -2 63 0 77 11
70 10 -6 11 -5 1 7 -6 8 -13 30 -16 49 -2 19 -5 -29 -5 -107z"/>
<path d="M3023 973 c-29 -27 -33 -38 -33 -82 0 -48 1 -50 20 -39 31 20 52 69
48 113 l-3 40 -32 -32z"/>
<path d="M2810 901 c0 -23 44 -61 83 -69 40 -9 40 -10 10 -11 -53 -2 -38 -16
17 -17 28 0 46 3 39 6 -8 6 -7 9 2 12 17 6 -23 53 -63 74 -30 15 -88 19 -88 5z"/>
<path d="M1696 845 c6 -15 43 -40 49 -33 1 2 -11 13 -26 26 -21 17 -27 19 -23
7z"/>
<path d="M1780 810 c36 -12 100 -12 100 0 0 6 -27 10 -62 9 -47 -1 -57 -3 -38
-9z"/>
<path d="M2347 813 c-3 -5 29 -8 71 -7 43 0 87 -3 99 -7 17 -6 21 -5 16 6 -4
12 -25 15 -93 15 -49 0 -91 -3 -93 -7z"/>
<path d="M2997 813 c-2 -5 -1 -19 3 -33 6 -25 6 -25 12 -2 3 12 2 22 -4 22 -5
0 -6 5 -3 10 3 6 4 10 1 10 -3 0 -7 -3 -9 -7z"/>
<path d="M2967 748 c7 -47 33 -85 33 -49 0 11 -4 23 -10 26 -5 3 -10 19 -10
36 0 16 -5 29 -10 29 -6 0 -8 -16 -3 -42z"/>
<path d="M3075 703 c-14 -15 -25 -33 -25 -40 0 -7 -4 -13 -10 -13 -5 0 -10
-13 -10 -30 0 -34 14 -38 49 -14 22 16 60 86 61 112 0 22 -38 13 -65 -15z"/>
<path d="M2870 683 c0 -21 43 -75 65 -83 64 -24 75 -24 75 3 0 14 -8 31 -17
36 -14 8 -15 10 -3 11 13 0 13 2 0 9 -8 6 -17 8 -21 5 -4 -2 -20 3 -35 11 -31
16 -64 20 -64 8z"/>
<path d="M1595 670 c3 -5 11 -10 16 -10 6 0 7 5 4 10 -3 6 -11 10 -16 10 -6 0
-7 -4 -4 -10z"/>
<path d="M4105 639 c-4 -6 -5 -12 -2 -15 2 -3 7 2 10 11 7 17 1 20 -8 4z"/>
<path d="M1647 625 c3 -8 9 -12 14 -9 12 7 11 11 -5 17 -10 4 -13 1 -9 -8z"/>
<path d="M3396 628 c3 -4 12 -8 20 -8 8 0 12 -5 9 -11 -4 -6 2 -5 14 3 29 18
26 23 -14 24 -18 0 -32 -3 -29 -8z"/>
<path d="M2210 613 c0 -6 -17 -14 -37 -16 -21 -2 9 -4 66 -5 109 -2 137 4 41
9 -30 1 -58 7 -62 13 -5 8 -8 7 -8 -1z"/>
<path d="M1688 603 c7 -3 16 -2 19 1 4 3 -2 6 -13 5 -11 0 -14 -3 -6 -6z"/>
<path d="M1910 600 c-24 -8 -23 -8 8 -9 20 -1 31 3 27 9 -3 6 -7 10 -8 9 -1
-1 -13 -5 -27 -9z"/>
<path d="M1798 593 c18 -2 45 -2 60 0 15 2 0 4 -33 4 -33 0 -45 -2 -27 -4z"/>
<path d="M2008 593 c23 -2 61 -2 85 0 23 2 4 4 -43 4 -47 0 -66 -2 -42 -4z"/>
<path d="M2413 593 c9 -2 23 -2 30 0 6 3 -1 5 -18 5 -16 0 -22 -2 -12 -5z"/>
<path d="M2468 593 c6 -2 18 -2 25 0 6 3 1 5 -13 5 -14 0 -19 -2 -12 -5z"/>
<path d="M2518 593 c6 -2 18 -2 25 0 6 3 1 5 -13 5 -14 0 -19 -2 -12 -5z"/>
<path d="M2560 596 c0 -2 7 -7 16 -10 8 -3 12 -2 9 4 -6 10 -25 14 -25 6z"/>
<path d="M4595 550 c-16 -11 -38 -19 -47 -16 -10 2 -15 -1 -11 -9 6 -18 -11
-48 -54 -96 -20 -22 -33 -42 -29 -46 3 -3 27 6 54 21 26 15 68 37 94 49 26 12
50 28 53 35 4 11 -19 82 -27 82 -2 0 -16 -9 -33 -20z"/>
<path d="M4096 545 c4 -8 8 -15 10 -15 2 0 4 7 4 15 0 8 -4 15 -10 15 -5 0 -7
-7 -4 -15z"/>
<path d="M3155 530 c-3 -6 1 -7 9 -4 18 7 21 14 7 14 -6 0 -13 -4 -16 -10z"/>
<path d="M3288 523 c7 -3 16 -2 19 1 4 3 -2 6 -13 5 -11 0 -14 -3 -6 -6z"/>
<path d="M2848 514 c-3 -3 -28 -9 -55 -14 l-48 -8 45 -1 c62 -2 96 -11 78 -22
-7 -5 -25 -9 -40 -9 -16 0 -28 -3 -28 -7 0 -8 109 -7 117 0 2 3 -4 18 -14 36
-16 28 -41 40 -55 25z"/>
<path d="M3188 323 c7 -3 16 -2 19 1 4 3 -2 6 -13 5 -11 0 -14 -3 -6 -6z"/>
</g>
</svg>
