<?xml version="1.0" standalone="no"?>
<!DOCTYPE svg PUBLIC "-//W3C//DTD SVG 20010904//EN"
 "http://www.w3.org/TR/2001/REC-SVG-20010904/DTD/svg10.dtd">
<svg version="1.0" xmlns="http://www.w3.org/2000/svg"
 width="669.000000pt" height="669.000000pt" viewBox="0 0 669.000000 669.000000"
 preserveAspectRatio="xMidYMid meet">
<metadata>
Created by potrace 1.14, written by Peter Selinger 2001-2017
</metadata>
<g transform="translate(0.000000,669.000000) scale(0.100000,-0.100000)"
fill="#000000" stroke="none">
<path d="M0 3345 l0 -3345 1898 0 1899 0 -22 87 c-13 49 -25 95 -28 103 -4 8
-9 35 -12 60 -4 25 -9 63 -12 85 -5 39 -27 75 -45 75 -14 0 -34 23 -42 46 -9
29 40 79 60 63 10 -8 14 -8 14 0 0 14 33 14 47 0 7 -7 23 -5 52 7 22 9 41 18
41 20 0 7 -51 88 -67 106 -13 15 -17 15 -57 -3 -23 -10 -69 -19 -102 -20 -72
-2 -180 19 -195 37 -6 8 -17 14 -24 14 -7 0 -18 13 -25 29 -11 28 -61 57 -74
44 -3 -4 -6 -2 -6 4 0 12 -39 11 -58 -1 -8 -5 -18 -4 -25 3 -15 15 -44 14 -50
-1 -4 -9 -8 -10 -14 -2 -13 16 -104 18 -114 2 -7 -10 -9 -10 -9 0 0 16 -121
14 -132 -2 -5 -7 -11 -8 -15 -1 -10 13 -93 14 -93 1 0 -6 -5 -5 -12 2 -16 16
-51 15 -66 0 -9 -9 -17 -10 -30 -2 -23 15 -185 15 -194 0 -6 -8 -8 -8 -8 2 0
15 -36 16 -45 2 -5 -8 -11 -8 -19 -1 -15 13 -56 10 -56 -4 0 -5 -4 -4 -9 4 -8
12 -12 12 -25 2 -12 -10 -20 -10 -29 -3 -8 7 -58 11 -123 11 -144 -1 -212 13
-242 48 -60 71 -55 -42 -56 1329 -1 1142 -2 1256 -17 1264 -18 11 -31 9 -110
-14 -67 -20 -77 -22 -193 -41 -50 -8 -96 -20 -103 -27 -10 -11 -9 -29 8 -96
11 -46 19 -91 18 -100 -2 -9 3 -43 10 -74 14 -64 19 -428 6 -448 -6 -10 -80
-12 -347 -8 -339 6 -380 11 -361 42 4 6 8 74 9 151 2 77 5 160 8 185 5 43 3
47 -39 86 -36 32 -45 48 -45 73 0 33 13 49 127 167 18 18 33 40 33 47 0 8 6
20 13 26 8 6 24 32 37 57 14 25 33 50 45 54 11 4 37 23 58 41 30 28 40 46 52
99 30 138 36 188 24 208 -17 27 -4 52 25 52 17 0 33 11 48 31 42 57 134 92
178 69 47 -25 65 -145 41 -262 -13 -63 -21 -68 -86 -57 -56 10 -76 -3 -71 -45
5 -39 22 -76 36 -76 4 0 21 -11 37 -24 22 -18 36 -22 68 -19 22 3 49 4 60 3
68 -7 212 -6 257 2 115 19 159 32 167 47 12 24 7 1059 -6 1072 -6 6 -19 6 -39
-1 -34 -13 -126 -6 -199 16 -69 21 -135 92 -135 146 0 21 -11 66 -25 101 -36
88 -61 102 -171 93 -76 -5 -86 -4 -104 14 -25 25 -25 53 2 154 21 82 21 83 2
122 l-19 39 -82 3 c-75 3 -84 5 -103 29 -26 33 -27 113 -2 155 21 36 90 70
147 70 43 1 85 -21 134 -72 13 -13 29 -25 35 -27 70 -15 90 -14 154 6 121 37
118 64 -8 66 -90 2 -85 1 -104 20 -12 12 -13 22 -4 48 6 17 18 41 27 52 44 53
57 126 29 164 -7 10 -28 37 -45 61 -52 68 -39 136 32 180 30 18 47 22 97 18
81 -6 101 -28 92 -102 -5 -44 -3 -54 16 -71 20 -18 35 -20 123 -18 55 1 104 6
109 11 6 6 4 38 -6 83 -8 41 -15 88 -15 104 0 17 -3 45 -6 62 -4 18 -5 43 -1
56 5 23 8 23 56 13 42 -8 53 -7 66 6 14 14 12 20 -18 63 -18 26 -37 54 -43 63
-5 10 -18 29 -28 45 -14 20 -17 35 -11 60 4 17 7 36 6 40 -1 4 5 21 13 37 16
32 45 40 90 27 32 -9 180 -82 205 -101 8 -6 32 -20 53 -31 22 -10 58 -35 80
-55 23 -20 54 -44 70 -53 l27 -18 -1 -115 c-1 -125 11 -163 38 -124 16 23 20
49 22 137 l1 62 33 -22 c18 -12 49 -40 69 -62 20 -22 57 -61 82 -88 44 -45 46
-50 46 -106 0 -67 6 -78 32 -54 11 10 22 13 27 7 16 -16 50 -115 44 -130 -3
-7 2 -20 11 -29 13 -14 67 -16 413 -16 430 0 450 0 503 8 19 3 155 7 302 9
146 2 274 7 285 11 28 11 126 9 130 -2 2 -6 30 -9 65 -7 51 3 71 -1 103 -20
151 -86 149 -82 155 -330 3 -108 8 -200 12 -203 8 -8 64 29 91 60 33 38 41 70
47 197 5 114 8 130 28 151 27 29 93 43 123 26 12 -6 33 -13 47 -15 15 -3 53
-12 85 -20 45 -11 62 -12 73 -4 7 7 19 10 26 8 18 -6 91 42 124 82 34 40 82
62 106 49 9 -5 21 -8 25 -7 26 7 88 -30 132 -79 60 -67 79 -132 60 -204 -12
-50 -30 -62 -95 -65 -57 -3 -105 -28 -125 -66 -6 -11 -10 -45 -9 -76 7 -180 7
-182 -24 -208 -27 -24 -33 -25 -110 -18 -117 11 -136 11 -181 0 -99 -23 -142
-94 -151 -251 -6 -122 -21 -165 -72 -210 -25 -22 -55 -44 -66 -50 -34 -17 -29
-33 22 -62 54 -31 122 -87 122 -102 0 -5 -10 -12 -22 -16 -58 -20 -77 -21 -99
-9 -13 7 -34 13 -45 14 -12 0 -27 7 -34 15 -6 8 -15 14 -18 13 -4 -1 -17 3
-30 10 -12 7 -27 10 -32 7 -7 -4 -10 -205 -10 -557 1 -540 0 -552 -20 -573
-27 -28 -25 -39 9 -74 l29 -29 -3 -185 c-4 -183 -4 -185 17 -179 11 3 23 13
25 23 3 11 9 16 14 13 5 -3 9 -1 9 3 0 12 89 8 123 -6 52 -21 154 -35 161 -22
4 6 13 8 21 5 18 -7 82 23 89 42 4 11 28 14 107 14 86 0 100 2 95 15 -4 11 2
15 24 15 l29 0 -6 -93 -6 -93 230 4 230 4 17 -38 c9 -22 23 -50 30 -64 54 -98
62 -194 26 -290 -21 -57 -26 -134 -16 -231 3 -30 8 -77 11 -105 2 -28 12 -77
21 -110 9 -32 18 -72 21 -89 7 -46 64 -297 72 -320 5 -11 18 -51 30 -90 12
-38 34 -110 50 -160 16 -49 32 -106 36 -125 4 -19 11 -40 16 -46 5 -7 16 -34
23 -60 18 -63 54 -166 79 -227 26 -59 16 -93 -31 -113 -32 -13 -32 -13 -57 26
-14 22 -37 66 -53 97 -15 32 -31 61 -35 64 -5 3 -30 48 -56 100 -26 52 -63
126 -83 164 -19 39 -41 86 -48 105 -8 19 -22 47 -32 62 -11 16 -17 28 -13 28
3 0 -1 14 -9 30 -35 67 -44 87 -56 125 -7 22 -18 51 -25 65 -8 14 -23 51 -36
83 -14 39 -30 62 -46 70 -42 19 -54 -18 -68 -208 -2 -22 -8 -76 -14 -120 -5
-44 -15 -129 -21 -190 -7 -60 -14 -117 -17 -125 -3 -8 -7 -33 -9 -55 -1 -22
-5 -53 -8 -70 -5 -29 -23 -166 -35 -274 l-6 -54 -47 -1 -46 -1 -4 50 c-2 28
-3 257 -1 510 1 253 -1 468 -3 478 -5 15 -8 16 -20 6 -8 -7 -31 -12 -50 -11
-22 1 -37 -4 -40 -13 -4 -8 -12 -15 -19 -15 -23 0 -72 -70 -85 -119 -30 -122
-30 -121 -55 -121 -13 0 -27 5 -30 10 -3 6 -13 10 -21 10 -9 0 -34 15 -57 34
-92 75 -163 96 -229 68 -15 -6 -48 -43 -77 -86 l-51 -75 0 -193 c0 -246 -11
-277 -109 -329 -21 -10 -44 -30 -51 -44 -31 -57 -170 -92 -300 -75 -30 4 -60
5 -67 3 -15 -6 -43 -76 -43 -108 0 -32 62 -65 91 -47 12 8 19 8 19 2 0 -5 6
-10 14 -10 15 0 26 -21 26 -47 0 -9 -17 -31 -39 -49 -35 -30 -38 -38 -44 -99
-4 -36 -10 -71 -14 -78 -4 -7 -9 -23 -10 -37 -3 -33 -19 -127 -28 -167 l-7
-33 1266 0 1266 0 0 3345 0 3345 -3345 0 -3345 0 0 -3345z m5101 3043 c43 -12
47 -26 22 -69 -16 -28 -63 -42 -63 -20 0 5 -10 11 -22 13 -26 3 -26 27 -2 66
17 26 15 25 65 10z m-4214 -48 c14 -11 32 -20 39 -20 21 0 17 -15 -13 -52 -15
-18 -28 -35 -29 -36 -4 -7 -39 8 -63 27 l-25 19 27 41 c15 23 30 41 33 41 3 0
17 -9 31 -20z m2992 5 c23 -8 58 -13 79 -12 36 2 37 1 40 -33 4 -38 29 -70 78
-101 19 -12 43 -41 59 -75 18 -37 43 -68 76 -92 26 -20 48 -40 48 -44 2 -16
-39 -47 -73 -57 -40 -11 -141 0 -158 17 -8 8 -8 15 1 26 10 11 10 23 0 55 -16
55 -34 69 -62 51 -23 -13 -32 -18 -79 -40 -23 -11 -31 -10 -56 6 -64 41 -112
127 -112 201 0 19 -4 42 -10 52 -7 14 -4 24 11 40 24 26 95 29 158 6z m-3315
-1141 c9 -3 16 -14 16 -24 0 -10 9 -28 19 -41 18 -22 22 -23 63 -12 90 24 133
-10 92 -73 -16 -23 -16 -26 6 -49 12 -13 35 -29 51 -35 32 -14 48 -52 30 -74
-7 -8 -24 -17 -39 -21 -15 -4 -33 -11 -39 -17 -16 -13 -17 -60 -2 -75 6 -6 9
-21 7 -34 -4 -31 -48 -42 -93 -23 -41 17 -85 5 -85 -24 0 -25 -36 -62 -60 -62
-12 0 -30 16 -45 40 -32 50 -46 56 -97 40 -33 -9 -46 -9 -65 1 -21 11 -24 18
-18 44 18 85 17 88 -65 125 -8 4 -16 19 -18 33 -3 22 4 29 40 48 58 30 71 48
52 76 -17 27 -18 65 -2 81 15 15 60 16 74 2 31 -31 82 -7 98 47 9 27 47 40 80
27z m4797 -276 c4 -78 -16 -124 -74 -175 -21 -19 -33 -38 -34 -59 -2 -29 2
-32 55 -54 37 -16 76 -43 110 -78 65 -66 66 -87 2 -86 -95 2 -161 40 -232 136
-64 85 -20 219 96 298 68 46 76 48 77 18z m567 -91 c29 -7 42 -16 42 -27 0
-10 -78 -63 -99 -68 -24 -5 -169 0 -196 7 -3 0 -8 1 -12 2 -5 1 -16 5 -26 11
-18 9 -18 10 0 30 19 21 49 36 98 48 33 8 156 6 193 -3z m379 -466 c12 -27 13
-35 2 -42 -7 -4 -16 -6 -20 -3 -4 2 -12 -3 -19 -11 -23 -28 -50 -18 -69 28
l-18 42 36 13 c20 8 43 17 51 21 9 5 16 4 18 -3 2 -6 11 -26 19 -45z m-978
-572 c25 -6 82 -9 126 -7 l80 3 -2 -46 c-3 -45 -1 -48 53 -94 30 -26 70 -70
88 -99 18 -28 40 -57 49 -65 27 -22 20 -36 -32 -64 -67 -37 -106 -36 -126 4
-9 17 -14 38 -10 46 3 9 -2 38 -11 65 -13 39 -19 48 -33 42 -9 -4 -40 -9 -68
-11 -44 -3 -56 0 -70 18 -10 12 -25 29 -33 38 -9 9 -21 27 -27 41 -6 14 -23
50 -37 81 -31 66 -32 73 -9 65 9 -4 37 -11 62 -17z m-4864 -219 c6 -4 22 -10
37 -14 15 -3 35 -21 48 -41 41 -67 6 -158 -66 -171 -16 -3 -34 -10 -40 -15 -8
-7 -19 -7 -31 0 -22 12 -55 24 -68 25 -5 1 -20 21 -32 46 -19 40 -21 51 -12
85 10 37 38 80 46 71 2 -2 19 2 39 9 40 14 65 15 79 5z m5475 -301 l50 -24 2
-65 c1 -75 1 -82 -8 -135 -3 -22 -8 -65 -11 -95 -3 -30 -9 -59 -14 -64 -5 -6
-9 -19 -9 -30 0 -11 -9 -30 -21 -42 l-21 -22 -65 19 c-36 10 -84 27 -106 37
-197 91 -264 126 -273 146 -5 11 -18 21 -29 22 -40 2 -45 4 -45 18 0 17 -22
26 -61 26 -36 0 -37 13 -4 28 32 15 72 15 81 1 3 -6 16 -8 28 -5 12 3 31 -1
43 -9 31 -21 337 -135 365 -135 12 0 10 70 -6 195 -8 61 -17 137 -21 169 l-7
59 42 -35 c22 -20 63 -46 90 -59z m-894 -332 c8 -25 0 -31 -25 -18 -24 14 -44
47 -36 61 8 13 52 -19 61 -43z"/>
<path d="M5442 2540 c0 -14 2 -19 5 -12 2 6 2 18 0 25 -3 6 -5 1 -5 -13z"/>
<path d="M5443 2425 c0 -22 2 -30 4 -17 2 12 2 30 0 40 -3 9 -5 -1 -4 -23z"/>
<path d="M5443 2315 c0 -22 2 -30 4 -17 2 12 2 30 0 40 -3 9 -5 -1 -4 -23z"/>
<path d="M5443 1995 c0 -33 2 -45 4 -27 2 18 2 45 0 60 -2 15 -4 0 -4 -33z"/>
<path d="M5442 1910 c0 -14 2 -19 5 -12 2 6 2 18 0 25 -3 6 -5 1 -5 -13z"/>
<path d="M3670 1498 c0 -18 9 -46 19 -62 19 -29 120 -100 129 -91 2 2 1 20 -2
40 -8 40 -64 108 -107 131 -38 19 -39 19 -39 -18z"/>
<path d="M4008 1254 c-37 -20 -68 -83 -68 -139 0 -25 4 -45 9 -45 19 0 72 54
86 87 16 37 20 113 8 113 -5 -1 -20 -8 -35 -16z"/>
<path d="M3684 1149 c-3 -5 -1 -17 5 -26 11 -22 51 -59 51 -48 0 4 6 3 13 -2
17 -14 64 -25 120 -27 l48 -3 -32 33 c-18 18 -47 40 -66 49 -41 20 -132 35
-139 24z"/>
<path d="M4079 883 c-50 -53 -69 -87 -69 -123 0 -28 2 -30 28 -24 54 13 121
101 122 162 0 36 -40 28 -81 -15z"/>
<path d="M3770 849 c0 -23 37 -77 62 -91 26 -14 104 -37 131 -38 14 0 18 6 15
26 -4 38 -97 101 -160 110 -37 5 -48 3 -48 -7z"/>
</g>
</svg>
