<?xml version="1.0" standalone="no"?>
<!DOCTYPE svg PUBLIC "-//W3C//DTD SVG 20010904//EN"
 "http://www.w3.org/TR/2001/REC-SVG-20010904/DTD/svg10.dtd">
<svg version="1.0" xmlns="http://www.w3.org/2000/svg"
 width="279.000000pt" height="279.000000pt" viewBox="0 0 279.000000 279.000000"
 preserveAspectRatio="xMidYMid meet">
<metadata>
Created by potrace 1.14, written by Peter Selinger 2001-2017
</metadata>
<g transform="translate(0.000000,279.000000) scale(0.100000,-0.100000)"
fill="#000000" stroke="none">
<path d="M0 1395 l0 -1395 786 0 c743 0 785 1 781 18 -3 9 -11 49 -18 87 -7
39 -19 75 -27 81 -25 18 -10 48 26 54 33 5 36 8 26 34 -4 11 -11 12 -33 3 -39
-14 -97 -1 -120 28 l-19 25 -240 0 -240 0 -31 25 -30 26 2 519 c1 342 -1 520
-8 520 -5 -1 -39 -9 -75 -19 -46 -12 -64 -22 -61 -32 6 -27 17 -224 13 -251
l-4 -28 -128 0 c-129 0 -160 4 -160 22 0 5 5 6 10 3 18 -11 13 150 -5 165 -17
14 -20 46 -6 54 5 3 26 32 46 63 21 32 46 65 55 73 21 18 54 115 45 130 -9 15
47 59 76 60 31 0 39 -15 39 -73 0 -53 -12 -71 -39 -64 -24 6 -30 -20 -9 -41
13 -13 123 -16 177 -6 l31 6 0 218 0 217 -50 5 c-61 6 -86 27 -94 78 -8 48
-31 73 -62 66 -47 -12 -56 1 -48 70 l6 64 -36 0 c-31 0 -38 4 -47 27 -13 36 2
70 37 84 23 8 33 5 65 -17 31 -21 44 -24 71 -18 l33 7 -37 10 c-42 10 -46 21
-20 66 16 30 16 32 -5 70 -27 47 -19 87 21 97 44 11 66 -3 66 -42 0 -33 1 -34
39 -34 l38 0 -5 71 -5 72 27 -7 27 -7 -25 47 c-20 38 -23 51 -14 75 13 38 30
37 105 -9 77 -48 103 -70 103 -91 0 -12 2 -13 8 -4 17 27 142 -143 142 -193 0
-10 57 -12 273 -8 332 6 317 6 347 1 78 -12 92 -30 100 -139 4 -64 7 -76 19
-68 9 5 17 34 22 75 9 90 23 103 88 86 54 -14 83 -5 109 31 17 23 39 23 79 -2
60 -36 67 -140 10 -140 -36 0 -47 -19 -47 -81 0 -33 -5 -61 -12 -65 -6 -4 -35
-6 -64 -5 -72 3 -89 -15 -97 -103 -5 -55 -11 -70 -33 -89 l-27 -24 32 -22 c37
-26 38 -35 9 -48 -16 -7 -30 -5 -51 5 -15 8 -30 12 -32 10 -2 -2 -5 -103 -6
-225 -1 -186 -4 -223 -16 -227 -13 -5 -13 -9 -1 -29 10 -15 13 -42 10 -87 l-3
-65 84 0 c46 0 90 5 98 11 8 6 27 9 42 8 23 -2 27 0 23 13 -5 11 -2 14 10 9 8
-3 17 -6 18 -6 1 0 0 -18 -2 -40 l-4 -40 90 0 90 0 16 -35 c14 -29 16 -54 11
-143 -6 -88 -3 -125 15 -212 21 -106 91 -364 111 -410 8 -20 7 -27 -7 -37 -10
-7 -22 -13 -26 -13 -16 0 -125 244 -182 404 -13 37 -23 0 -35 -134 -7 -74 -17
-175 -23 -223 -10 -81 -12 -88 -32 -85 -21 3 -21 7 -21 216 0 224 0 226 -46
202 -12 -7 -21 -26 -25 -51 -4 -22 -13 -43 -20 -46 -7 -3 -33 10 -58 27 -36
26 -48 30 -64 21 -37 -20 -52 -57 -52 -129 0 -96 -8 -127 -36 -143 -13 -7 -24
-18 -24 -24 0 -18 -53 -37 -99 -37 -26 1 -41 -4 -45 -15 -8 -20 1 -33 25 -33
27 0 35 -27 15 -49 -9 -10 -21 -47 -26 -82 -6 -35 -12 -74 -15 -86 l-5 -23
540 0 540 0 0 1395 0 1395 -1395 0 -1395 0 0 -1395z m2065 1251 c16 -12 17
-16 6 -30 -26 -31 -58 -14 -46 24 8 24 15 25 40 6z m-1551 -19 c17 -12 17 -14
-1 -35 -16 -19 -20 -20 -36 -8 -15 12 -16 18 -7 35 13 24 20 26 44 8z m1110
-2 c11 -1 22 -8 24 -16 2 -8 15 -25 28 -39 60 -64 75 -87 60 -100 -22 -18 -79
-9 -82 13 -4 27 -10 30 -35 16 -20 -10 -26 -8 -51 20 -45 51 -34 131 17 114
11 -3 29 -7 39 -8z m-334 -55 c0 -5 -2 -10 -4 -10 -3 0 -8 5 -11 10 -3 6 -1
10 4 10 6 0 11 -4 11 -10z m-901 -417 c6 -11 21 -18 38 -18 24 0 29 -5 31 -30
2 -16 10 -34 18 -38 8 -4 14 -14 14 -22 0 -8 -6 -18 -14 -22 -8 -4 -16 -21
-18 -38 -2 -25 -7 -30 -28 -29 -13 1 -32 -8 -42 -20 l-18 -21 -18 21 c-10 12
-29 21 -42 20 -21 -1 -25 4 -25 27 -1 17 -8 33 -18 38 -23 13 -21 36 3 49 16
9 18 15 10 29 -12 23 11 47 36 37 11 -4 22 1 31 14 17 25 29 25 42 3z m1771
-117 c0 -13 -9 -35 -20 -49 -11 -14 -20 -28 -20 -32 0 -4 19 -24 43 -45 31
-28 39 -41 31 -50 -27 -28 -124 43 -124 91 0 28 26 75 52 93 31 22 38 20 38
-8z m210 -26 c13 -9 12 -13 -9 -30 -24 -20 -47 -23 -89 -12 -30 9 -31 24 -1
39 29 15 78 16 99 3z m138 -194 c4 -18 -13 -36 -34 -36 -13 0 -26 39 -18 52
10 16 49 4 52 -16z m-498 -81 c0 -8 -2 -15 -4 -15 -2 0 -6 7 -10 15 -3 8 -1
15 4 15 6 0 10 -7 10 -15z m172 -155 c33 0 39 -3 34 -16 -4 -10 8 -32 34 -61
46 -53 50 -70 16 -79 -34 -8 -46 2 -46 37 0 28 -2 30 -32 24 -29 -5 -35 -3
-49 22 -9 15 -19 41 -23 57 -6 24 -4 27 9 22 9 -3 35 -6 57 -6z m-1802 -111
c24 -43 -28 -101 -70 -79 -44 24 -45 81 -1 104 29 16 54 7 71 -25z m2006 -193
c-7 -117 -12 -119 -134 -60 -56 26 -98 52 -96 56 3 4 -4 8 -15 8 -27 0 -27 17
-1 25 12 4 31 0 44 -9 13 -8 52 -26 86 -40 l63 -26 -7 85 -6 84 36 -22 35 -22
-5 -79z m-356 -36 c0 -5 -2 -10 -4 -10 -3 0 -8 5 -11 10 -3 6 -1 10 4 10 6 0
11 -4 11 -10z"/>
<path d="M1052 2555 c0 -16 2 -22 5 -12 2 9 2 23 0 30 -3 6 -5 -1 -5 -18z"/>
<path d="M1530 633 c0 -18 28 -53 43 -53 16 0 5 28 -18 50 -24 23 -25 23 -25
3z"/>
<path d="M1640 521 c-5 -11 -10 -30 -10 -43 l1 -23 19 24 c21 24 27 61 10 61
-5 0 -14 -9 -20 -19z"/>
<path d="M1540 476 c19 -18 80 -38 80 -26 0 15 -43 40 -69 40 -22 0 -23 -2
-11 -14z"/>
<path d="M1670 370 c-30 -42 -21 -61 13 -28 27 27 36 58 18 58 -5 0 -19 -14
-31 -30z"/>
<path d="M1570 361 c0 -12 40 -41 57 -41 23 0 14 30 -13 40 -32 12 -44 13 -44
1z"/>
</g>
</svg>
